# xmcd
#
# Track frame offsets:
#	150
#	17210
#	32323
#	50293
#	64649
#	83046
#	94374
#	110912
#	127745
#	145886
#	159199
#	174126
#	191081
#	211390
#	229757
#	244627
#	260298
#	276391
#	290319
#
# Disc length: 4121 seconds
#
# Revision: 1
# Processed by: cddbd v1.5.2PL0 Copyright (c) Steve Scherf et al.
# Submitted via: audiograbber 1.83.01
#
DISCID=00101713
DTITLE=CDX - CDX-478
DYEAR=2009
DGENRE=Country
TTITLE0=Lost Trailers - All This Love
TTITLE1=Sara Evans - Feels Just Like A Love Song
TTITLE2=Jason Michael Carroll - Hurry Home
TTITLE3=Tim McGraw - It's A Business Doing Pleasure With You
TTITLE4=Sugarland - Joey
TTITLE5=Larry Gatlin and Gatlin Brothers - Johnny Cash is Dead (and His House Bur
TTITLE5=ned Down)
TTITLE6=Jonathan Singleton - Look Who's Back In Love
TTITLE7=Keith Urban - Only You Can Love Me This Way
TTITLE8=Gary Allan - Today
TTITLE9=Bekka Bramlett - What's On My Mind
TTITLE10=Billy Dean - The Greatest Man That I Never Knew
TTITLE11=Joey and Rory - To Say Goodbye w intro
TTITLE12=Joey and Rory - To Say Goodbye (no intro)
TTITLE13=Jamie O'Neal - Soldier Coming Home
TTITLE14=Rachel Hooper - Now I Know You Did
TTITLE15=Girls Guns and Glory - Only One Thing
TTITLE16=Dion Pride - We All Gotta Live Here
TTITLE17=Camille Alvey - Kick Up The Dust
TTITLE18=Cassy and Alyssa Gaddi - The Price Of Peace
EXTD=
EXTT0=
EXTT1=
EXTT2=
EXTT3=
EXTT4=
EXTT5=
EXTT6=
EXTT7=
EXTT8=
EXTT9=
EXTT10=
EXTT11=
EXTT12=
EXTT13=
EXTT14=
EXTT15=
EXTT16=
EXTT17=
EXTT18=
PLAYORDER=
